<svg stroke-width="0.501" stroke-linejoin="bevel" fill-rule="evenodd" xmlns:xlink="http://www.w3.org/1999/xlink" xmlns="http://www.w3.org/2000/svg" version="1.1" overflow="visible" width="139.5pt" height="37.5pt" viewBox="0 0 139.5 37.5">
 <defs>
  <marker id="DefaultArrow2" markerUnits="strokeWidth" viewBox="0 0 1 1" markerWidth="1" markerHeight="1" overflow="visible" orient="auto">
   <!-- REF_ARROW_STRAIGHT (-2) -->
   <g transform="scale(0.0092592592)">
    <!-- 1/108 -->
    <path d="M -9 54 L -9 -54 L 117 0 z"/>
   </g>
  </marker>
  <marker id="DefaultArrow3" markerUnits="strokeWidth" viewBox="0 0 1 1" markerWidth="1" markerHeight="1" overflow="visible" orient="auto">
   <!-- REF_ARROW_ANGLED -->
   <g transform="scale(0.0092592592)">
    <path d="M -27 54 L -9 0 L -27 -54 L 135 0 z"/>
   </g>
  </marker>
  <marker id="DefaultArrow4" markerUnits="strokeWidth" viewBox="0 0 1 1" markerWidth="1" markerHeight="1" overflow="visible" orient="auto">
   <!-- REF_ARROW_ROUNDED -->
   <g transform="scale(0.0092592592)">
    <path d="M -9,0 L -9,-45 C -9,-51.708 2.808,-56.580 9,-54 L 117,-9 C 120.916,-7.369 126.000,-4.242 126,0 C 126,4.242 120.916,7.369 117,9 L 9,54 C 2.808,56.580 -9,51.708 -9,45 z"/>
   </g>
  </marker>
  <marker id="DefaultArrow5" markerUnits="strokeWidth" viewBox="0 0 1 1" markerWidth="1" markerHeight="1" overflow="visible" orient="auto">
   <!-- REF_ARROW_SPOT -->
   <g transform="scale(0.0092592592)">
    <path d="M -54, 0 C -54,29.807 -29.807,54 0,54 C 29.807,54 54,29.807 54,0 C 54,-29.807 29.807,-54 0,-54 C -29.807,-54 -54,-29.807 -54,0 z"/>
   </g>
  </marker>
  <marker id="DefaultArrow6" markerUnits="strokeWidth" viewBox="0 0 1 1" markerWidth="1" markerHeight="1" overflow="visible" orient="auto">
   <!-- REF_ARROW_DIAMOND -->
   <g transform="scale(0.0092592592)">
    <path d="M -63,0 L 0,63 L 63,0 L 0,-63 z"/>
   </g>
  </marker>
  <marker id="DefaultArrow7" markerUnits="strokeWidth" viewBox="0 0 1 1" markerWidth="1" markerHeight="1" overflow="visible" orient="auto">
   <!-- REF_ARROW_FEATHER -->
   <g transform="scale(0.0092592592)">
    <path d="M 18,-54 L 108,-54 L 63,0 L 108,54 L 18, 54 L -36,0 z"/>
   </g>
  </marker>
  <marker id="DefaultArrow8" markerUnits="strokeWidth" viewBox="0 0 1 1" markerWidth="1" markerHeight="1" overflow="visible" orient="auto">
   <!-- REF_ARROW_FEATHER2 -->
   <g transform="scale(0.0092592592)">
    <path d="M -36,0 L 18,-54 L 54,-54 L 18,-18 L 27,-18 L 63,-54 L 99,-54 L 63,-18 L 72,-18 L 108,-54 L 144,-54 L 90,0 L 144,54 L 108,54 L 72,18 L 63,18 L 99,54 L 63,54 L 27,18 L 18,18 L 54,54 L 18,54 z"/>
   </g>
  </marker>
  <marker id="DefaultArrow9" markerUnits="strokeWidth" viewBox="0 0 1 1" markerWidth="1" markerHeight="1" overflow="visible" orient="auto">
   <!-- REF_ARROW_HOLLOWDIAMOND -->
   <g transform="scale(0.0092592592)">
    <path d="M 0,45 L -45,0 L 0, -45 L 45, 0 z M 0, 63 L-63, 0 L 0, -63 L 63, 0 z"/>
   </g>
  </marker>
  <filter id="StainedFilter">
   <feBlend mode="multiply" in2="BackgroundImage" in="SourceGraphic" result="blend"/>
   <feComposite in="blend" in2="SourceAlpha" operator="in" result="comp"/>
  </filter>
  <filter id="BleachFilter">
   <feBlend mode="screen" in2="BackgroundImage" in="SourceGraphic" result="blend"/>
   <feComposite in="blend" in2="SourceAlpha" operator="in" result="comp"/>
  </filter>
  <filter id="InvertTransparencyBitmapFilter">
   <feComponentTransfer>
    <feFuncR type="gamma" amplitude="1.055" exponent=".416666666" offset="-0.055"/>
    <feFuncG type="gamma" amplitude="1.055" exponent=".416666666" offset="-0.055"/>
    <feFuncB type="gamma" amplitude="1.055" exponent=".416666666" offset="-0.055"/>
   </feComponentTransfer>
   <feComponentTransfer>
    <feFuncR type="linear" slope="-1" intercept="1"/>
    <feFuncG type="linear" slope="-1" intercept="1"/>
    <feFuncB type="linear" slope="-1" intercept="1"/>
    <feFuncA type="linear" slope="1" intercept="0"/>
   </feComponentTransfer>
   <feComponentTransfer>
    <feFuncR type="gamma" amplitude="1" exponent="2.4" offset="0"/>
    <feFuncG type="gamma" amplitude="1" exponent="2.4" offset="0"/>
    <feFuncB type="gamma" amplitude="1" exponent="2.4" offset="0"/>
   </feComponentTransfer>
  </filter>
  <linearGradient id="LinearGradient" gradientUnits="userSpaceOnUse" x1="0" y1="0" x2="28.48" y2="19.89" gradientTransform="translate(-1.817 8.462)">
   <stop offset="0" stop-color="#1aa3c7"/>
   <stop offset="1" stop-color="#1aa6bf"/>
  </linearGradient>
  <linearGradient id="LinearGradient_1" gradientUnits="userSpaceOnUse" x1="0" y1="0" x2="25.958" y2="0.176" gradientTransform="translate(47.455 6.558)">
   <stop offset="0" stop-color="#1ac782"/>
   <stop offset="1" stop-color="#17c26e"/>
  </linearGradient>
  <linearGradient id="LinearGradient_2" gradientUnits="userSpaceOnUse" x1="0" y1="0" x2="-5.65" y2="-21.473" gradientTransform="translate(36.609 36.488)">
   <stop offset="0" stop-color="#1aa8bd"/>
   <stop offset="1" stop-color="#1fb0ab"/>
  </linearGradient>
  <linearGradient id="LinearGradient_3" gradientUnits="userSpaceOnUse" x1="0" y1="0" x2="28.479" y2="25.315" gradientTransform="translate(25.079 -2.163)">
   <stop offset="0" stop-color="#1fadb0"/>
   <stop offset="1" stop-color="#1fb0a8"/>
  </linearGradient>
  <linearGradient id="LinearGradient_4" gradientUnits="userSpaceOnUse" x1="0" y1="0" x2="-4.976" y2="-24.369" gradientTransform="translate(53.458 31.103)">
   <stop offset="0" stop-color="#1cb8a1"/>
   <stop offset="1" stop-color="#1cba9c"/>
  </linearGradient>
  <linearGradient id="LinearGradient_5" gradientUnits="userSpaceOnUse" x1="0" y1="0" x2="9.271" y2="2.913" gradientTransform="translate(50.15 6.955)">
   <stop offset="0" stop-color="#1fb0a8"/>
   <stop offset="1" stop-color="#17c275"/>
  </linearGradient>
  <linearGradient id="LinearGradient_6" gradientUnits="userSpaceOnUse" x1="0" y1="0" x2="9.801" y2="1.06" gradientTransform="translate(42.999 1.304)">
   <stop offset="0" stop-color="#1fb0a8"/>
   <stop offset="1" stop-color="#1ac47a"/>
  </linearGradient>
 </defs>
 <g id="Document" fill="none" stroke="black" font-family="Times New Roman" font-size="16" transform="scale(1 -1)">
  <g id="Spread" transform="translate(0 -37.5)">
   <g id="Layer 1"/>
   <g id="Imported Layer 1">
    <g id="Group" stroke="none" stroke-miterlimit="79.8403193612775">
     <path d="M 3.8,0.067 L 0,1.538 C 6.55,13.96 15.21,26.397 29.899,35.736 L 27.968,29.984 C 16.612,21.717 9.588,11.163 3.8,0.067 M 10.196,0.067 L 6.398,1.569 C 7.151,2.944 7.913,4.281 8.689,5.588 C 13.625,13.877 19.136,20.889 27,27.111 L 24.683,20.211 C 18.54,14.334 14.198,7.798 10.196,0.067 Z" stroke-width="0.178" marker-start="none" marker-end="none" stroke-miterlimit="19.9600798403194" fill="url(#LinearGradient)"/>
     <path d="M 59.118,0 L 43.158,0.067 L 40.301,4.295 L 60.349,4.309 C 60.416,4.326 60.482,4.338 60.548,4.338 C 60.796,4.338 60.964,4.196 60.996,3.983 C 61.142,4.174 61.376,4.309 61.592,4.309 C 61.883,4.309 62.046,4.07 61.947,3.777 C 61.855,3.504 61.573,3.282 61.301,3.251 C 61.554,3.216 61.684,2.994 61.592,2.721 C 61.507,2.468 61.253,2.252 60.996,2.201 C 61.218,2.151 61.329,1.935 61.243,1.68 C 61.157,1.418 60.894,1.202 60.631,1.155 C 60.863,1.11 60.98,0.895 60.891,0.631 C 60.792,0.343 60.473,0.102 60.181,0.102 C 59.975,0.102 59.829,0.225 59.803,0.403 C 59.639,0.191 59.375,0.038 59.128,0.028 L 59.118,0 M 61.196,0.594 C 61.281,0.847 61.556,1.053 61.808,1.053 C 62.058,1.053 62.197,0.847 62.113,0.594 C 62.027,0.343 61.75,0.137 61.5,0.137 C 61.249,0.137 61.11,0.343 61.196,0.594 M 62.704,0.555 C 62.766,0.743 62.974,0.901 63.165,0.901 C 63.352,0.901 63.457,0.743 63.393,0.555 C 63.329,0.365 63.12,0.21 62.934,0.21 C 62.744,0.21 62.638,0.365 62.704,0.555 M 64.214,0.483 C 64.256,0.609 64.396,0.71 64.522,0.71 C 64.649,0.71 64.722,0.609 64.678,0.483 C 64.637,0.353 64.497,0.25 64.367,0.25 C 64.24,0.25 64.171,0.353 64.214,0.483 M 60.441,1.155 C 60.292,1.186 60.191,1.288 60.158,1.42 C 60.082,1.316 59.984,1.224 59.874,1.155 C 59.937,1.084 59.975,0.993 59.978,0.888 C 60.101,1.025 60.273,1.129 60.441,1.155 M 61.554,1.668 C 61.639,1.919 61.916,2.128 62.166,2.128 C 62.419,2.128 62.557,1.919 62.474,1.668 C 62.387,1.418 62.113,1.212 61.861,1.212 C 61.608,1.212 61.471,1.418 61.554,1.668 M 63.061,1.621 C 63.123,1.811 63.329,1.966 63.52,1.966 C 63.71,1.966 63.812,1.811 63.748,1.621 C 63.684,1.434 63.478,1.275 63.288,1.275 C 63.098,1.275 62.997,1.434 63.061,1.621 M 64.569,1.535 C 64.614,1.665 64.75,1.77 64.881,1.77 C 65.007,1.77 65.077,1.665 65.033,1.535 C 64.992,1.411 64.852,1.307 64.725,1.307 C 64.595,1.307 64.528,1.411 64.569,1.535 M 60.778,2.201 C 60.634,2.229 60.536,2.331 60.508,2.461 C 60.425,2.343 60.307,2.243 60.177,2.17 C 60.25,2.106 60.295,2.011 60.307,1.907 C 60.428,2.056 60.603,2.166 60.778,2.201 M 61.912,2.737 C 61.999,2.987 62.273,3.197 62.524,3.197 C 62.778,3.197 62.914,2.987 62.832,2.737 C 62.746,2.483 62.47,2.281 62.217,2.281 C 61.966,2.281 61.826,2.483 61.912,2.737 M 63.421,2.705 C 63.485,2.892 63.691,3.051 63.882,3.051 C 64.069,3.051 64.174,2.892 64.11,2.705 C 64.047,2.515 63.837,2.36 63.65,2.36 C 63.463,2.36 63.359,2.515 63.421,2.705 M 64.957,2.686 C 64.997,2.814 65.134,2.917 65.267,2.917 C 65.392,2.917 65.461,2.814 65.42,2.686 C 65.378,2.56 65.236,2.454 65.109,2.454 C 64.983,2.454 64.912,2.56 64.957,2.686 M 61.173,3.251 C 61.015,3.266 60.904,3.368 60.868,3.504 C 60.787,3.381 60.669,3.273 60.543,3.197 C 60.609,3.134 60.647,3.048 60.659,2.949 C 60.79,3.107 60.986,3.226 61.173,3.251 M 62.28,3.828 C 62.366,4.082 62.642,4.288 62.893,4.288 C 63.146,4.288 63.282,4.082 63.199,3.828 C 63.114,3.58 62.835,3.372 62.585,3.372 C 62.334,3.372 62.195,3.58 62.28,3.828 M 63.774,3.753 C 63.837,3.94 64.043,4.094 64.233,4.094 C 64.42,4.094 64.525,3.94 64.462,3.753 C 64.398,3.562 64.19,3.406 64.003,3.406 C 63.812,3.406 63.71,3.562 63.774,3.753 M 65.321,3.765 C 65.362,3.895 65.499,3.999 65.629,3.999 C 65.756,3.999 65.826,3.895 65.781,3.765 C 65.74,3.638 65.601,3.533 65.473,3.533 C 65.343,3.533 65.276,3.638 65.321,3.765 M 51.695,6.425 L 48.83,10.735 L 117.538,10.735 L 117.523,10.681 C 117.614,10.719 117.71,10.741 117.805,10.741 C 118.052,10.741 118.22,10.595 118.252,10.386 C 118.397,10.576 118.633,10.713 118.849,10.713 C 119.14,10.713 119.301,10.471 119.203,10.18 C 119.111,9.908 118.829,9.681 118.556,9.65 C 118.81,9.619 118.94,9.392 118.849,9.124 C 118.761,8.867 118.508,8.651 118.252,8.604 C 118.474,8.552 118.584,8.337 118.499,8.084 C 118.413,7.82 118.151,7.601 117.887,7.56 C 118.118,7.513 118.236,7.294 118.148,7.035 C 118.052,6.746 117.729,6.504 117.437,6.504 C 117.231,6.504 117.088,6.628 117.06,6.805 C 116.889,6.583 116.613,6.429 116.355,6.429 C 116.267,6.429 116.187,6.448 116.121,6.479 L 116.106,6.425 L 51.695,6.425 M 118.452,6.995 C 118.537,7.246 118.813,7.456 119.064,7.456 C 119.317,7.456 119.455,7.246 119.367,6.995 C 119.286,6.746 119.007,6.536 118.757,6.536 C 118.505,6.536 118.366,6.746 118.452,6.995 M 119.961,6.955 C 120.025,7.145 120.231,7.3 120.421,7.3 C 120.612,7.3 120.713,7.145 120.649,6.955 C 120.585,6.768 120.377,6.612 120.19,6.612 C 119.999,6.612 119.898,6.768 119.961,6.955 M 121.471,6.882 C 121.516,7.009 121.651,7.113 121.778,7.113 C 121.908,7.113 121.978,7.009 121.937,6.882 C 121.892,6.756 121.753,6.65 121.627,6.65 C 121.499,6.65 121.426,6.756 121.471,6.882 M 117.696,7.558 C 117.551,7.589 117.446,7.688 117.418,7.823 C 117.342,7.719 117.24,7.627 117.129,7.558 C 117.192,7.485 117.231,7.395 117.237,7.288 C 117.358,7.427 117.529,7.529 117.696,7.558 M 118.813,8.072 C 118.896,8.322 119.175,8.531 119.425,8.531 C 119.675,8.531 119.812,8.322 119.727,8.072 C 119.644,7.818 119.367,7.614 119.114,7.614 C 118.864,7.614 118.728,7.818 118.813,8.072 M 120.316,8.024 C 120.38,8.211 120.589,8.369 120.775,8.369 C 120.966,8.369 121.068,8.211 121.004,8.024 C 120.941,7.837 120.735,7.677 120.545,7.677 C 120.358,7.677 120.253,7.837 120.316,8.024 M 121.826,7.937 C 121.87,8.065 122.006,8.169 122.136,8.169 C 122.264,8.169 122.334,8.065 122.289,7.937 C 122.247,7.811 122.108,7.707 121.981,7.707 C 121.852,7.707 121.785,7.811 121.826,7.937 M 118.032,8.6 C 117.89,8.632 117.792,8.73 117.767,8.864 C 117.68,8.746 117.564,8.645 117.434,8.572 C 117.507,8.505 117.554,8.413 117.567,8.309 C 117.687,8.457 117.859,8.568 118.032,8.6 M 119.171,9.139 C 119.254,9.39 119.53,9.596 119.781,9.596 C 120.034,9.596 120.174,9.39 120.088,9.139 C 120.003,8.889 119.727,8.68 119.473,8.68 C 119.222,8.68 119.086,8.889 119.171,9.139 M 120.678,9.108 C 120.741,9.295 120.95,9.454 121.137,9.454 C 121.328,9.454 121.428,9.295 121.366,9.108 C 121.302,8.917 121.097,8.762 120.906,8.762 C 120.719,8.762 120.614,8.917 120.678,9.108 M 122.213,9.089 C 122.257,9.212 122.393,9.317 122.521,9.317 C 122.651,9.317 122.72,9.212 122.675,9.089 C 122.635,8.962 122.495,8.857 122.368,8.857 C 122.237,8.857 122.171,8.962 122.213,9.089 M 118.432,9.65 C 118.271,9.669 118.16,9.768 118.125,9.908 C 118.042,9.783 117.929,9.676 117.798,9.6 C 117.865,9.536 117.903,9.451 117.916,9.352 C 118.049,9.511 118.243,9.628 118.432,9.65 M 119.537,10.23 C 119.622,10.485 119.898,10.691 120.148,10.691 C 120.402,10.691 120.538,10.485 120.456,10.23 C 120.37,9.979 120.094,9.773 119.84,9.773 C 119.59,9.773 119.455,9.979 119.537,10.23 M 121.03,10.154 C 121.094,10.342 121.302,10.497 121.49,10.497 C 121.68,10.497 121.781,10.342 121.717,10.154 C 121.655,9.964 121.449,9.809 121.258,9.809 C 121.068,9.809 120.966,9.964 121.03,10.154 M 122.574,10.168 C 122.618,10.294 122.758,10.398 122.886,10.398 C 123.011,10.398 123.082,10.294 123.04,10.168 C 122.997,10.041 122.855,9.936 122.727,9.936 C 122.599,9.936 122.533,10.041 122.574,10.168 Z" stroke-width="0.355" marker-start="none" marker-end="none" stroke-miterlimit="19.9600798403194" fill="url(#LinearGradient_1)"/>
     <path d="M 21.485,6.933 L 31.491,36.717 L 35.131,34.724 L 29.137,16.878 C 26.398,13.874 23.845,10.567 21.485,6.933 M 31.948,19.913 L 36.66,33.945 L 40.304,31.956 L 38.004,25.11 C 35.902,23.508 33.882,21.777 31.948,19.913 Z" stroke-width="0.178" marker-start="none" marker-end="none" stroke-miterlimit="19.9600798403194" fill="url(#LinearGradient_2)"/>
     <path d="M 23.521,0.071 L 19.529,1.044 C 24.736,11.425 34.038,22.138 46.373,29.166 C 46.412,29.187 46.449,29.208 46.487,29.225 C 46.776,29.391 47.131,29.584 47.499,29.781 L 45.714,24.466 C 35.562,18.124 27.916,8.968 23.521,0.071 M 29.915,0.102 L 25.932,1.075 C 30.187,9.454 36.568,16.404 44.842,21.863 L 42.834,15.888 C 37.27,11.48 32.975,6.219 29.915,0.102 Z" stroke-width="0.178" marker-start="none" marker-end="none" stroke-miterlimit="19.9600798403194" fill="url(#LinearGradient_3)"/>
     <path d="M 40.349,5.1 L 48.904,30.64 L 52.389,28.189 L 44.66,5.1 L 40.349,5.1 M 48.511,11.557 L 53.724,27.131 L 57.212,24.679 L 52.82,11.557 L 48.511,11.557 Z" stroke-width="0.178" marker-start="none" marker-end="none" stroke-miterlimit="19.9600798403194" fill="url(#LinearGradient_4)"/>
     <path d="M 51.691,6.422 L 48.825,10.735 L 64.916,10.735 L 64.916,6.422 L 51.691,6.422 Z" stroke-width="0.355" marker-start="none" marker-end="none" stroke-miterlimit="19.9600798403194" fill="url(#LinearGradient_5)"/>
     <path d="M 43.18,0.035 L 40.297,4.285 L 56.385,4.285 L 56.401,0.035 L 43.18,0.035 Z" stroke-width="0.355" marker-start="none" marker-end="none" stroke-miterlimit="19.9600798403194" fill="url(#LinearGradient_6)"/>
    </g>
    <path d="M 127.936,6.406 C 126.767,6.46 125.863,7.45 125.913,8.62 C 125.967,9.787 126.96,10.693 128.127,10.64 C 129.126,10.595 129.668,10.691 129.997,10.85 C 130.188,10.942 130.444,11.119 130.68,11.708 L 130.766,11.946 L 131.32,14.182 C 131.317,14.188 131.317,14.194 131.314,14.201 L 126.227,28.423 C 125.834,29.525 126.409,30.739 127.509,31.132 C 128.612,31.525 129.824,30.952 130.219,29.851 L 133.166,21.606 L 135.157,29.606 C 135.44,30.742 136.591,31.433 137.726,31.151 C 138.862,30.869 139.552,29.718 139.27,28.583 L 134.857,10.836 C 134.85,10.807 134.827,10.741 134.822,10.713 C 134.276,8.981 133.281,7.736 131.857,7.04 C 130.541,6.401 129.097,6.352 127.936,6.406 M 65.889,16.484 L 65.889,34.738 C 65.889,35.834 66.781,36.72 67.877,36.717 L 68.715,36.714 C 69.479,36.71 70.173,36.266 70.499,35.572 L 76.161,23.465 L 76.161,34.732 C 76.161,35.822 77.045,36.71 78.136,36.71 C 79.23,36.71 80.115,35.822 80.115,34.732 L 80.115,16.608 C 80.115,15.514 79.23,14.629 78.136,14.629 L 77.181,14.629 C 76.415,14.629 75.717,15.073 75.39,15.767 L 69.846,27.63 L 69.846,16.484 C 69.846,15.393 68.958,14.508 67.868,14.508 C 66.777,14.508 65.889,15.393 65.889,16.484 M 85.63,15.181 C 84.787,15.63 84.143,16.281 83.701,17.135 C 83.261,17.987 83.043,19.012 83.043,20.211 L 83.043,25.462 C 83.043,26.651 83.261,27.666 83.701,28.506 C 84.143,29.35 84.787,29.991 85.63,30.429 C 86.474,30.869 87.488,31.087 88.677,31.087 C 89.866,31.087 90.888,30.869 91.734,30.429 C 92.582,29.991 93.228,29.35 93.668,28.506 C 94.11,27.666 94.329,26.651 94.329,25.462 L 94.329,20.162 C 94.329,18.977 94.11,17.959 93.668,17.109 C 93.228,16.262 92.582,15.618 91.734,15.175 C 90.888,14.731 89.866,14.505 88.677,14.508 C 87.488,14.505 86.474,14.731 85.63,15.181 M 117.589,16.522 L 117.589,27.06 L 117.456,27.06 C 116.345,27.06 115.442,27.961 115.442,29.074 C 115.442,30.183 116.345,31.087 117.456,31.087 L 117.589,31.087 L 117.589,31.807 C 117.567,32.67 117.644,33.495 117.852,34.237 C 118.061,34.989 118.413,35.686 118.96,36.25 C 119.305,36.609 119.701,36.888 120.129,37.091 C 120.897,37.449 121.698,37.531 122.419,37.49 C 123.529,37.42 124.376,36.466 124.309,35.356 C 124.249,34.383 123.494,33.638 122.574,33.484 C 121.873,33.368 121.587,32.99 121.617,31.854 L 121.617,31.087 L 122.276,31.087 C 123.39,31.087 124.289,30.183 124.289,29.074 C 124.289,27.961 123.39,27.06 122.276,27.06 L 121.617,27.06 L 121.617,16.522 C 121.617,15.409 120.713,14.508 119.603,14.508 C 118.493,14.508 117.589,15.409 117.589,16.522 M 101.882,14.785 C 101.026,15.038 100.297,15.469 99.726,16.066 C 98.612,17.227 98.368,18.704 98.372,19.849 L 98.372,27.045 L 97.972,27.051 C 96.858,27.06 95.961,27.971 95.97,29.087 C 95.981,30.2 96.891,31.097 98.006,31.087 L 98.372,31.085 L 98.372,34.05 C 98.372,35.162 99.276,36.069 100.391,36.069 C 101.505,36.069 102.409,35.162 102.409,34.05 L 102.409,31.054 L 103.096,31.047 C 104.213,31.037 105.108,30.124 105.1,29.01 C 105.091,27.895 104.177,27 103.065,27.006 L 102.409,27.012 L 102.409,19.845 C 102.409,19.211 102.551,18.952 102.639,18.86 C 102.741,18.754 103.143,18.476 104.426,18.562 C 105.536,18.641 106.503,17.798 106.579,16.688 C 106.655,15.574 105.814,14.61 104.702,14.534 C 103.668,14.464 102.722,14.537 101.882,14.785 M 89.993,18.815 C 90.307,19.167 90.462,19.669 90.462,20.318 L 90.462,25.323 C 90.462,25.954 90.307,26.445 89.993,26.794 C 89.683,27.145 89.241,27.323 88.677,27.323 C 88.122,27.323 87.688,27.145 87.367,26.794 C 87.05,26.445 86.891,25.954 86.891,25.323 L 86.891,20.318 C 86.891,19.669 87.05,19.167 87.361,18.815 C 87.675,18.463 88.112,18.289 88.677,18.289 C 89.241,18.289 89.683,18.463 89.993,18.815 Z" stroke="none" fill="#4b4b4b" stroke-width="0.187" marker-start="none" marker-end="none" stroke-miterlimit="79.8403193612775"/>
    <path d="M 109.179,16.621 L 109.179,29.131 C 109.179,30.254 110.089,31.164 111.212,31.164 C 112.334,31.164 113.245,30.254 113.245,29.131 L 113.245,16.621 C 113.245,15.498 112.334,14.584 111.212,14.584 C 110.089,14.584 109.179,15.498 109.179,16.621 M 109.071,34.44 L 109.071,34.446 C 109.071,35.569 109.981,36.478 111.104,36.478 C 112.227,36.478 113.137,35.569 113.137,34.446 L 113.137,34.44 C 113.137,33.317 112.227,32.403 111.104,32.403 C 109.981,32.403 109.071,33.317 109.071,34.44 Z" stroke="none" fill="#4b4b4b" stroke-width="0.187" marker-start="none" marker-end="none" stroke-miterlimit="79.8403193612775"/>
   </g>
   <g id="Layer 2"/>
  </g>
 </g>
</svg>
